<?xml version="1.0" encoding="UTF-8" standalone="no"?>
<svg width="91.5mm" height="50.85mm"
 viewBox="0 0 1830 1017"
 xmlns="http://www.w3.org/2000/svg" xmlns:xlink="http://www.w3.org/1999/xlink"  version="1.2" baseProfile="tiny">
<title>Proteus Design Suite SVG export</title>
<desc>Created by Proteus Design Suite</desc>
<defs>
</defs>
<g fill="none" stroke="black" stroke-width="1" fill-rule="evenodd" stroke-linecap="square" stroke-linejoin="bevel" >

<g fill="#ffffff" fill-opacity="1" stroke="none" transform="matrix(1,0,0,1,0,0)"
font-family="MS Shell Dlg 2" font-size="52.9167" font-weight="400" font-style="normal" 
>
<path vector-effect="non-scaling-stroke" fill-rule="evenodd" d="M0,0 L1830,0 L1830,1017 L0,1017 L0,0"/>
</g>

<g fill="none" stroke="#000000" stroke-opacity="1" stroke-width="8" stroke-linecap="round" stroke-linejoin="bevel" transform="matrix(1,0,0,1,0,0)"
font-family="MS Shell Dlg 2" font-size="52.9167" font-weight="400" font-style="normal" 
>
<path vector-effect="none" fill-rule="evenodd" d="M153,610 L153,813 L915,813"/>
</g>

<g fill="none" stroke="#000000" stroke-opacity="1" stroke-width="8" stroke-linecap="round" stroke-linejoin="bevel" transform="matrix(1,0,0,1,0,0)"
font-family="MS Shell Dlg 2" font-size="52.9167" font-weight="400" font-style="normal" 
>
<path vector-effect="none" fill-rule="evenodd" d="M915,864 L915,813"/>
</g>

<g fill="none" stroke="#000000" stroke-opacity="1" stroke-width="8" stroke-linecap="round" stroke-linejoin="bevel" transform="matrix(1,0,0,1,0,0)"
font-family="MS Shell Dlg 2" font-size="52.9167" font-weight="400" font-style="normal" 
>
<path vector-effect="none" fill-rule="evenodd" d="M1626,559 L1626,813 L915,813"/>
</g>

<g fill="none" stroke="#000000" stroke-opacity="1" stroke-width="8" stroke-linecap="round" stroke-linejoin="bevel" transform="matrix(1,0,0,1,0,0)"
font-family="MS Shell Dlg 2" font-size="52.9167" font-weight="400" font-style="normal" 
>
<path vector-effect="none" fill-rule="evenodd" d="M153,305 L153,152 L204,152"/>
</g>

<g fill="none" stroke="#000000" stroke-opacity="1" stroke-width="8" stroke-linecap="round" stroke-linejoin="bevel" transform="matrix(1,0,0,1,0,0)"
font-family="MS Shell Dlg 2" font-size="52.9167" font-weight="400" font-style="normal" 
>
<path vector-effect="none" fill-rule="evenodd" d="M509,152 L559,152"/>
</g>

<g fill="none" stroke="#000000" stroke-opacity="1" stroke-width="8" stroke-linecap="round" stroke-linejoin="bevel" transform="matrix(1,0,0,1,0,0)"
font-family="MS Shell Dlg 2" font-size="52.9167" font-weight="400" font-style="normal" 
>
<path vector-effect="none" fill-rule="evenodd" d="M915,508"/>
</g>

<g fill="none" stroke="#000000" stroke-opacity="1" stroke-width="8" stroke-linecap="round" stroke-linejoin="bevel" transform="matrix(1,0,0,1,0,0)"
font-family="MS Shell Dlg 2" font-size="52.9167" font-weight="400" font-style="normal" 
>
<path vector-effect="none" fill-rule="evenodd" d="M915,813 L915,762"/>
</g>

<g fill="none" stroke="#000000" stroke-opacity="1" stroke-width="8" stroke-linecap="round" stroke-linejoin="bevel" transform="matrix(1,0,0,1,0,0)"
font-family="MS Shell Dlg 2" font-size="52.9167" font-weight="400" font-style="normal" 
>
<path vector-effect="none" fill-rule="evenodd" d="M1626,305 L1626,152"/>
</g>

<g fill="none" stroke="#000000" stroke-opacity="1" stroke-width="8" stroke-linecap="round" stroke-linejoin="bevel" transform="matrix(1,0,0,1,0,0)"
font-family="MS Shell Dlg 2" font-size="52.9167" font-weight="400" font-style="normal" 
>
<path vector-effect="none" fill-rule="evenodd" d="M813,152 L915,152"/>
</g>

<g fill="none" stroke="#000000" stroke-opacity="1" stroke-width="8" stroke-linecap="round" stroke-linejoin="bevel" transform="matrix(1,0,0,1,0,0)"
font-family="MS Shell Dlg 2" font-size="52.9167" font-weight="400" font-style="normal" 
>
<path vector-effect="none" fill-rule="evenodd" d="M1321,152 L915,152"/>
</g>

<g fill="none" stroke="#000000" stroke-opacity="1" stroke-width="8" stroke-linecap="round" stroke-linejoin="bevel" transform="matrix(1,0,0,1,0,0)"
font-family="MS Shell Dlg 2" font-size="52.9167" font-weight="400" font-style="normal" 
>
<path vector-effect="none" fill-rule="evenodd" d="M915,203 L915,152"/>
</g>

<g fill="none" stroke="#000000" stroke-opacity="1" stroke-width="8" stroke-linecap="round" stroke-linejoin="bevel" transform="matrix(1,0,0,1,0,0)"
font-family="MS Shell Dlg 2" font-size="52.9167" font-weight="400" font-style="normal" 
>
<path vector-effect="none" fill-rule="evenodd" d="M255,457 C255,513.333 209.333,559 153,559 C96.667,559 51,513.333 51,457 C51,400.667 96.667,355 153,355 C209.333,355 255,400.667 255,457 "/>
</g>

<g fill="none" stroke="#000000" stroke-opacity="1" stroke-width="8" stroke-linecap="round" stroke-linejoin="bevel" transform="matrix(1,0,0,1,0,0)"
font-family="MS Shell Dlg 2" font-size="52.9167" font-weight="400" font-style="normal" 
>
<polyline fill="none" vector-effect="none" points="128,406 178,406 " />
</g>

<g fill="none" stroke="#000000" stroke-opacity="1" stroke-width="8" stroke-linecap="round" stroke-linejoin="bevel" transform="matrix(1,0,0,1,0,0)"
font-family="MS Shell Dlg 2" font-size="52.9167" font-weight="400" font-style="normal" 
>
<polyline fill="none" vector-effect="none" points="153,381 153,432 " />
</g>

<g fill="none" stroke="#000000" stroke-opacity="1" stroke-width="8" stroke-linecap="round" stroke-linejoin="bevel" transform="matrix(1,0,0,1,0,0)"
font-family="MS Shell Dlg 2" font-size="52.9167" font-weight="400" font-style="normal" 
>
<polyline fill="none" vector-effect="none" points="128,508 178,508 " />
</g>

<g fill="none" stroke="#000000" stroke-opacity="1" stroke-width="8" stroke-linecap="round" stroke-linejoin="bevel" transform="matrix(1,0,0,1,0,0)"
font-family="MS Shell Dlg 2" font-size="52.9167" font-weight="400" font-style="normal" 
>
<polyline fill="none" vector-effect="none" points="153,305 153,356 " />
</g>

<g fill="none" stroke="#000000" stroke-opacity="1" stroke-width="8" stroke-linecap="round" stroke-linejoin="bevel" transform="matrix(1,0,0,1,0,0)"
font-family="MS Shell Dlg 2" font-size="52.9167" font-weight="400" font-style="normal" 
>
<polyline fill="none" vector-effect="none" points="153,610 153,559 " />
</g>

<g fill="none" stroke="#000000" stroke-opacity="1" stroke-width="1" stroke-linecap="square" stroke-linejoin="bevel" transform="matrix(1,0,0,1,0,0)"
font-family="Arial" font-size="62.484" font-weight="400" font-style="normal" 
>
<text fill="#000000" fill-opacity="1" stroke="none" xml:space="preserve" x="284" y="410" font-family="Arial" font-size="62.484" font-weight="400" font-style="normal" 
 >V3</text>
</g>

<g fill="none" stroke="#000000" stroke-opacity="1" stroke-width="8" stroke-linecap="round" stroke-linejoin="bevel" transform="matrix(1,0,0,1,0,0)"
font-family="MS Shell Dlg 2" font-size="52.9167" font-weight="400" font-style="normal" 
>
</g>

<g fill="none" stroke="#000000" stroke-opacity="1" stroke-width="1" stroke-linecap="square" stroke-linejoin="bevel" transform="matrix(1,0,0,1,0,0)"
font-family="Arial" font-size="41.656" font-weight="400" font-style="normal" 
>
<text fill="#000000" fill-opacity="1" stroke="none" xml:space="preserve" x="284" y="468" font-family="Arial" font-size="41.656" font-weight="400" font-style="normal" 
 >5V</text>
</g>

<g fill="none" stroke="#000000" stroke-opacity="1" stroke-width="8" stroke-linecap="round" stroke-linejoin="bevel" transform="matrix(1,0,0,1,0,0)"
font-family="MS Shell Dlg 2" font-size="52.9167" font-weight="400" font-style="normal" 
>
</g>

<g fill="#4040ff" fill-opacity="1" stroke="none" transform="matrix(1,0,0,1,0,0)"
font-family="MS Shell Dlg 2" font-size="52.9167" font-weight="400" font-style="normal" 
>
<path vector-effect="non-scaling-stroke" fill-rule="evenodd" d="M115,597 L140,597 L140,622 L115,622 L115,597"/>
</g>

<g fill="none" stroke="#000000" stroke-opacity="1" stroke-width="8" stroke-linecap="round" stroke-linejoin="bevel" transform="matrix(1,0,0,1,0,0)"
font-family="MS Shell Dlg 2" font-size="52.9167" font-weight="400" font-style="normal" 
>
<path vector-effect="none" fill-rule="evenodd" d="M1606,356 L1647,356 L1647,508 L1606,508 L1606,356"/>
</g>

<g fill="none" stroke="#000000" stroke-opacity="1" stroke-width="8" stroke-linecap="round" stroke-linejoin="bevel" transform="matrix(1,0,0,1,0,0)"
font-family="MS Shell Dlg 2" font-size="52.9167" font-weight="400" font-style="normal" 
>
<polyline fill="none" vector-effect="none" points="1626,305 1626,356 " />
</g>

<g fill="none" stroke="#000000" stroke-opacity="1" stroke-width="8" stroke-linecap="round" stroke-linejoin="bevel" transform="matrix(1,0,0,1,0,0)"
font-family="MS Shell Dlg 2" font-size="52.9167" font-weight="400" font-style="normal" 
>
<polyline fill="none" vector-effect="none" points="1626,559 1626,508 " />
</g>

<g fill="none" stroke="#000000" stroke-opacity="1" stroke-width="1" stroke-linecap="square" stroke-linejoin="bevel" transform="matrix(1,0,0,1,0,0)"
font-family="Arial" font-size="62.484" font-weight="400" font-style="normal" 
>
<text fill="#000000" fill-opacity="1" stroke="none" xml:space="preserve" x="1676" y="410" font-family="Arial" font-size="62.484" font-weight="400" font-style="normal" 
 >R9</text>
</g>

<g fill="none" stroke="#000000" stroke-opacity="1" stroke-width="8" stroke-linecap="round" stroke-linejoin="bevel" transform="matrix(1,0,0,1,0,0)"
font-family="MS Shell Dlg 2" font-size="52.9167" font-weight="400" font-style="normal" 
>
</g>

<g fill="none" stroke="#000000" stroke-opacity="1" stroke-width="1" stroke-linecap="square" stroke-linejoin="bevel" transform="matrix(1,0,0,1,0,0)"
font-family="Arial" font-size="41.656" font-weight="400" font-style="normal" 
>
<text fill="#000000" fill-opacity="1" stroke="none" xml:space="preserve" x="1676" y="468" font-family="Arial" font-size="41.656" font-weight="400" font-style="normal" 
 >220</text>
</g>

<g fill="none" stroke="#000000" stroke-opacity="1" stroke-width="8" stroke-linecap="round" stroke-linejoin="bevel" transform="matrix(1,0,0,1,0,0)"
font-family="MS Shell Dlg 2" font-size="52.9167" font-weight="400" font-style="normal" 
>
</g>

<g fill="#4040ff" fill-opacity="1" stroke="none" transform="matrix(1,0,0,1,0,0)"
font-family="MS Shell Dlg 2" font-size="52.9167" font-weight="400" font-style="normal" 
>
<path vector-effect="non-scaling-stroke" fill-rule="evenodd" d="M1588,546 L1613,546 L1613,572 L1588,572 L1588,546"/>
</g>

<g fill="none" stroke="#000000" stroke-opacity="1" stroke-width="8" stroke-linecap="round" stroke-linejoin="bevel" transform="matrix(1,0,0,1,0,0)"
font-family="MS Shell Dlg 2" font-size="52.9167" font-weight="400" font-style="normal" 
>
<polyline fill="none" vector-effect="none" points="915,864 915,914 " />
</g>

<g fill="none" stroke="#000000" stroke-opacity="1" stroke-width="8" stroke-linecap="round" stroke-linejoin="bevel" transform="matrix(1,0,0,1,0,0)"
font-family="MS Shell Dlg 2" font-size="52.9167" font-weight="400" font-style="normal" 
>
<polyline fill="none" vector-effect="none" points="864,914 966,914 " />
</g>

<g fill="none" stroke="#000000" stroke-opacity="1" stroke-width="8" stroke-linecap="round" stroke-linejoin="bevel" transform="matrix(1,0,0,1,0,0)"
font-family="MS Shell Dlg 2" font-size="52.9167" font-weight="400" font-style="normal" 
>
<polyline fill="none" vector-effect="none" points="890,940 940,940 " />
</g>

<g fill="none" stroke="#000000" stroke-opacity="1" stroke-width="8" stroke-linecap="round" stroke-linejoin="bevel" transform="matrix(1,0,0,1,0,0)"
font-family="MS Shell Dlg 2" font-size="52.9167" font-weight="400" font-style="normal" 
>
<polyline fill="none" vector-effect="none" points="910,965 920,965 " />
</g>

<g fill="#000000" fill-opacity="1" stroke="#000000" stroke-opacity="1" stroke-width="8" stroke-linecap="round" stroke-linejoin="bevel" transform="matrix(1,0,0,1,0,0)"
font-family="MS Shell Dlg 2" font-size="52.9167" font-weight="400" font-style="normal" 
>
<path vector-effect="none" fill-rule="evenodd" d="M925,813 C925,818.523 920.523,823 915,823 C909.477,823 905,818.523 905,813 C905,807.477 909.477,803 915,803 C920.523,803 925,807.477 925,813 "/>
</g>

<g fill="#000000" fill-opacity="1" stroke="#000000" stroke-opacity="1" stroke-width="1" stroke-linecap="square" stroke-linejoin="bevel" transform="matrix(1,0,0,1,0,0)"
font-family="Arial" font-size="249.936" font-weight="400" font-style="normal" 
>
<text fill="#000000" fill-opacity="1" stroke="none" xml:space="preserve" x="-507" y="-28" font-family="Arial" font-size="249.936" font-weight="400" font-style="normal" 
 >Amperios</text>
</g>

<g fill="#000000" fill-opacity="1" stroke="#000000" stroke-opacity="1" stroke-width="8" stroke-linecap="round" stroke-linejoin="bevel" transform="matrix(1,0,0,1,0,0)"
font-family="MS Shell Dlg 2" font-size="52.9167" font-weight="400" font-style="normal" 
>
</g>

<g fill="none" stroke="#000000" stroke-opacity="1" stroke-width="8" stroke-linecap="round" stroke-linejoin="bevel" transform="matrix(1,0,0,1,0,0)"
font-family="MS Shell Dlg 2" font-size="52.9167" font-weight="400" font-style="normal" 
>
<path vector-effect="none" fill-rule="evenodd" d="M458,152 C458,208.333 412.333,254 356,254 C299.667,254 254,208.333 254,152 C254,95.667 299.667,50 356,50 C412.333,50 458,95.667 458,152 "/>
</g>

<g fill="none" stroke="#000000" stroke-opacity="1" stroke-width="3" stroke-linecap="round" stroke-linejoin="bevel" transform="matrix(1,0,0,1,0,0)"
font-family="MS Shell Dlg 2" font-size="52.9167" font-weight="400" font-style="normal" 
>
<polyline fill="none" vector-effect="none" points="209,117 229,117 " />
</g>

<g fill="none" stroke="#000000" stroke-opacity="1" stroke-width="3" stroke-linecap="round" stroke-linejoin="bevel" transform="matrix(1,0,0,1,0,0)"
font-family="MS Shell Dlg 2" font-size="52.9167" font-weight="400" font-style="normal" 
>
<polyline fill="none" vector-effect="none" points="219,107 219,127 " />
</g>

<g fill="none" stroke="#000000" stroke-opacity="1" stroke-width="3" stroke-linecap="round" stroke-linejoin="bevel" transform="matrix(1,0,0,1,0,0)"
font-family="MS Shell Dlg 2" font-size="52.9167" font-weight="400" font-style="normal" 
>
<polyline fill="none" vector-effect="none" points="483,122 504,122 " />
</g>

<g fill="none" stroke="#000000" stroke-opacity="1" stroke-width="4" stroke-linecap="round" stroke-linejoin="bevel" transform="matrix(1,0,0,1,0,0)"
font-family="MS Shell Dlg 2" font-size="52.9167" font-weight="400" font-style="normal" 
>
<path vector-effect="none" fill-rule="evenodd" d="M285,112 L427,112 L427,163 L285,163 L285,112"/>
</g>

<g fill="none" stroke="#000000" stroke-opacity="1" stroke-width="1" stroke-linecap="square" stroke-linejoin="bevel" transform="matrix(1,0,0,1,0,0)"
font-family="Arial" font-size="39.5732" font-weight="400" font-style="italic" 
>
<text fill="#000000" fill-opacity="1" stroke="none" xml:space="preserve" x="326" y="214" font-family="Arial" font-size="39.5732" font-weight="400" font-style="italic" 
 >mA</text>
</g>

<g fill="none" stroke="#000000" stroke-opacity="1" stroke-width="4" stroke-linecap="round" stroke-linejoin="bevel" transform="matrix(1,0,0,1,0,0)"
font-family="MS Shell Dlg 2" font-size="52.9167" font-weight="400" font-style="normal" 
>
</g>

<g fill="none" stroke="#000000" stroke-opacity="1" stroke-width="1" stroke-linecap="square" stroke-linejoin="bevel" transform="matrix(1,0,0,1,0,0)"
font-family="Arial" font-size="41.656" font-weight="400" font-style="normal" 
>
<text fill="#000000" fill-opacity="1" stroke="none" xml:space="preserve" x="303" y="153" font-family="Arial" font-size="41.656" font-weight="400" font-style="normal" 
 >+9.80</text>
</g>

<g fill="none" stroke="#000000" stroke-opacity="1" stroke-width="4" stroke-linecap="round" stroke-linejoin="bevel" transform="matrix(1,0,0,1,0,0)"
font-family="MS Shell Dlg 2" font-size="52.9167" font-weight="400" font-style="normal" 
>
</g>

<g fill="none" stroke="#000000" stroke-opacity="1" stroke-width="8" stroke-linecap="round" stroke-linejoin="bevel" transform="matrix(1,0,0,1,0,0)"
font-family="MS Shell Dlg 2" font-size="52.9167" font-weight="400" font-style="normal" 
>
<polyline fill="none" vector-effect="none" points="204,152 255,152 " />
</g>

<g fill="none" stroke="#000000" stroke-opacity="1" stroke-width="8" stroke-linecap="round" stroke-linejoin="bevel" transform="matrix(1,0,0,1,0,0)"
font-family="MS Shell Dlg 2" font-size="52.9167" font-weight="400" font-style="normal" 
>
<polyline fill="none" vector-effect="none" points="509,152 458,152 " />
</g>

<g fill="none" stroke="#000000" stroke-opacity="1" stroke-width="8" stroke-linecap="round" stroke-linejoin="bevel" transform="matrix(1,0,0,1,0,0)"
font-family="MS Shell Dlg 2" font-size="52.9167" font-weight="400" font-style="normal" 
>
<path vector-effect="none" fill-rule="evenodd" d="M610,132 L763,132 L763,173 L610,173 L610,132"/>
</g>

<g fill="none" stroke="#000000" stroke-opacity="1" stroke-width="8" stroke-linecap="round" stroke-linejoin="bevel" transform="matrix(1,0,0,1,0,0)"
font-family="MS Shell Dlg 2" font-size="52.9167" font-weight="400" font-style="normal" 
>
<polyline fill="none" vector-effect="none" points="559,152 610,152 " />
</g>

<g fill="none" stroke="#000000" stroke-opacity="1" stroke-width="8" stroke-linecap="round" stroke-linejoin="bevel" transform="matrix(1,0,0,1,0,0)"
font-family="MS Shell Dlg 2" font-size="52.9167" font-weight="400" font-style="normal" 
>
<polyline fill="none" vector-effect="none" points="813,152 763,152 " />
</g>

<g fill="none" stroke="#000000" stroke-opacity="1" stroke-width="1" stroke-linecap="square" stroke-linejoin="bevel" transform="matrix(1,0,0,1,0,0)"
font-family="Arial" font-size="62.484" font-weight="400" font-style="normal" 
>
<text fill="#000000" fill-opacity="1" stroke="none" xml:space="preserve" x="606" y="116" font-family="Arial" font-size="62.484" font-weight="400" font-style="normal" 
 >R7</text>
</g>

<g fill="none" stroke="#000000" stroke-opacity="1" stroke-width="8" stroke-linecap="round" stroke-linejoin="bevel" transform="matrix(1,0,0,1,0,0)"
font-family="MS Shell Dlg 2" font-size="52.9167" font-weight="400" font-style="normal" 
>
</g>

<g fill="none" stroke="#000000" stroke-opacity="1" stroke-width="1" stroke-linecap="square" stroke-linejoin="bevel" transform="matrix(1,0,0,1,0,0)"
font-family="Arial" font-size="41.656" font-weight="400" font-style="normal" 
>
<text fill="#000000" fill-opacity="1" stroke="none" xml:space="preserve" x="606" y="217" font-family="Arial" font-size="41.656" font-weight="400" font-style="normal" 
 >330</text>
</g>

<g fill="none" stroke="#000000" stroke-opacity="1" stroke-width="8" stroke-linecap="round" stroke-linejoin="bevel" transform="matrix(1,0,0,1,0,0)"
font-family="MS Shell Dlg 2" font-size="52.9167" font-weight="400" font-style="normal" 
>
</g>

<g fill="none" stroke="#000000" stroke-opacity="1" stroke-width="8" stroke-linecap="round" stroke-linejoin="bevel" transform="matrix(1,0,0,1,0,0)"
font-family="MS Shell Dlg 2" font-size="52.9167" font-weight="400" font-style="normal" 
>
<path vector-effect="none" fill-rule="evenodd" d="M1017,356 C1017,412.333 971.333,458 915,458 C858.667,458 813,412.333 813,356 C813,299.667 858.667,254 915,254 C971.333,254 1017,299.667 1017,356 "/>
</g>

<g fill="none" stroke="#000000" stroke-opacity="1" stroke-width="3" stroke-linecap="round" stroke-linejoin="bevel" transform="matrix(1,0,0,1,0,0)"
font-family="MS Shell Dlg 2" font-size="52.9167" font-weight="400" font-style="normal" 
>
<polyline fill="none" vector-effect="none" points="951,208 951,229 " />
</g>

<g fill="none" stroke="#000000" stroke-opacity="1" stroke-width="3" stroke-linecap="round" stroke-linejoin="bevel" transform="matrix(1,0,0,1,0,0)"
font-family="MS Shell Dlg 2" font-size="52.9167" font-weight="400" font-style="normal" 
>
<polyline fill="none" vector-effect="none" points="961,218 940,218 " />
</g>

<g fill="none" stroke="#000000" stroke-opacity="1" stroke-width="3" stroke-linecap="round" stroke-linejoin="bevel" transform="matrix(1,0,0,1,0,0)"
font-family="MS Shell Dlg 2" font-size="52.9167" font-weight="400" font-style="normal" 
>
<polyline fill="none" vector-effect="none" points="945,483 945,503 " />
</g>

<g fill="none" stroke="#000000" stroke-opacity="1" stroke-width="4" stroke-linecap="round" stroke-linejoin="bevel" transform="matrix(1,0,0,1,0,0)"
font-family="MS Shell Dlg 2" font-size="52.9167" font-weight="400" font-style="normal" 
>
<path vector-effect="none" fill-rule="evenodd" d="M905,284 L956,284 L956,427 L905,427 L905,284"/>
</g>

<g fill="none" stroke="#000000" stroke-opacity="1" stroke-width="1" stroke-linecap="square" stroke-linejoin="bevel" transform="matrix(0,1,-1,0,1179,-527)"
font-family="Arial" font-size="39.5732" font-weight="400" font-style="italic" 
>
<text fill="#000000" fill-opacity="1" stroke="none" xml:space="preserve" x="853" y="326" font-family="Arial" font-size="39.5732" font-weight="400" font-style="italic" 
 >mA</text>
</g>

<g fill="none" stroke="#000000" stroke-opacity="1" stroke-width="4" stroke-linecap="round" stroke-linejoin="bevel" transform="matrix(1,0,0,1,0,0)"
font-family="MS Shell Dlg 2" font-size="52.9167" font-weight="400" font-style="normal" 
>
</g>

<g fill="none" stroke="#000000" stroke-opacity="1" stroke-width="1" stroke-linecap="square" stroke-linejoin="bevel" transform="matrix(0,1,-1,0,1217,-611)"
font-family="Arial" font-size="41.656" font-weight="400" font-style="normal" 
>
<text fill="#000000" fill-opacity="1" stroke="none" xml:space="preserve" x="914" y="303" font-family="Arial" font-size="41.656" font-weight="400" font-style="normal" 
 >+1.77</text>
</g>

<g fill="none" stroke="#000000" stroke-opacity="1" stroke-width="4" stroke-linecap="round" stroke-linejoin="bevel" transform="matrix(1,0,0,1,0,0)"
font-family="MS Shell Dlg 2" font-size="52.9167" font-weight="400" font-style="normal" 
>
</g>

<g fill="none" stroke="#000000" stroke-opacity="1" stroke-width="8" stroke-linecap="round" stroke-linejoin="bevel" transform="matrix(1,0,0,1,0,0)"
font-family="MS Shell Dlg 2" font-size="52.9167" font-weight="400" font-style="normal" 
>
<polyline fill="none" vector-effect="none" points="915,203 915,254 " />
</g>

<g fill="none" stroke="#000000" stroke-opacity="1" stroke-width="8" stroke-linecap="round" stroke-linejoin="bevel" transform="matrix(1,0,0,1,0,0)"
font-family="MS Shell Dlg 2" font-size="52.9167" font-weight="400" font-style="normal" 
>
<polyline fill="none" vector-effect="none" points="915,508 915,457 " />
</g>

<g fill="none" stroke="#000000" stroke-opacity="1" stroke-width="8" stroke-linecap="round" stroke-linejoin="bevel" transform="matrix(1,0,0,1,0,0)"
font-family="MS Shell Dlg 2" font-size="52.9167" font-weight="400" font-style="normal" 
>
<path vector-effect="none" fill-rule="evenodd" d="M895,559 L935,559 L935,711 L895,711 L895,559"/>
</g>

<g fill="none" stroke="#000000" stroke-opacity="1" stroke-width="8" stroke-linecap="round" stroke-linejoin="bevel" transform="matrix(1,0,0,1,0,0)"
font-family="MS Shell Dlg 2" font-size="52.9167" font-weight="400" font-style="normal" 
>
<polyline fill="none" vector-effect="none" points="915,508 915,559 " />
</g>

<g fill="none" stroke="#000000" stroke-opacity="1" stroke-width="8" stroke-linecap="round" stroke-linejoin="bevel" transform="matrix(1,0,0,1,0,0)"
font-family="MS Shell Dlg 2" font-size="52.9167" font-weight="400" font-style="normal" 
>
<polyline fill="none" vector-effect="none" points="915,762 915,711 " />
</g>

<g fill="none" stroke="#000000" stroke-opacity="1" stroke-width="1" stroke-linecap="square" stroke-linejoin="bevel" transform="matrix(1,0,0,1,0,0)"
font-family="Arial" font-size="62.484" font-weight="400" font-style="normal" 
>
<text fill="#000000" fill-opacity="1" stroke="none" xml:space="preserve" x="965" y="613" font-family="Arial" font-size="62.484" font-weight="400" font-style="normal" 
 >R8</text>
</g>

<g fill="none" stroke="#000000" stroke-opacity="1" stroke-width="8" stroke-linecap="round" stroke-linejoin="bevel" transform="matrix(1,0,0,1,0,0)"
font-family="MS Shell Dlg 2" font-size="52.9167" font-weight="400" font-style="normal" 
>
</g>

<g fill="none" stroke="#000000" stroke-opacity="1" stroke-width="1" stroke-linecap="square" stroke-linejoin="bevel" transform="matrix(1,0,0,1,0,0)"
font-family="Arial" font-size="41.656" font-weight="400" font-style="normal" 
>
<text fill="#000000" fill-opacity="1" stroke="none" xml:space="preserve" x="965" y="671" font-family="Arial" font-size="41.656" font-weight="400" font-style="normal" 
 >1k</text>
</g>

<g fill="none" stroke="#000000" stroke-opacity="1" stroke-width="8" stroke-linecap="round" stroke-linejoin="bevel" transform="matrix(1,0,0,1,0,0)"
font-family="MS Shell Dlg 2" font-size="52.9167" font-weight="400" font-style="normal" 
>
</g>

<g fill="#4040ff" fill-opacity="1" stroke="none" transform="matrix(1,0,0,1,0,0)"
font-family="MS Shell Dlg 2" font-size="52.9167" font-weight="400" font-style="normal" 
>
<path vector-effect="non-scaling-stroke" fill-rule="evenodd" d="M877,749 L902,749 L902,775 L877,775 L877,749"/>
</g>

<g fill="none" stroke="#000000" stroke-opacity="1" stroke-width="8" stroke-linecap="round" stroke-linejoin="bevel" transform="matrix(1,0,0,1,0,0)"
font-family="MS Shell Dlg 2" font-size="52.9167" font-weight="400" font-style="normal" 
>
<path vector-effect="none" fill-rule="evenodd" d="M1576,152 C1576,208.333 1530.33,254 1474,254 C1417.67,254 1372,208.333 1372,152 C1372,95.667 1417.67,50 1474,50 C1530.33,50 1576,95.667 1576,152 "/>
</g>

<g fill="none" stroke="#000000" stroke-opacity="1" stroke-width="3" stroke-linecap="round" stroke-linejoin="bevel" transform="matrix(1,0,0,1,0,0)"
font-family="MS Shell Dlg 2" font-size="52.9167" font-weight="400" font-style="normal" 
>
<polyline fill="none" vector-effect="none" points="1326,117 1347,117 " />
</g>

<g fill="none" stroke="#000000" stroke-opacity="1" stroke-width="3" stroke-linecap="round" stroke-linejoin="bevel" transform="matrix(1,0,0,1,0,0)"
font-family="MS Shell Dlg 2" font-size="52.9167" font-weight="400" font-style="normal" 
>
<polyline fill="none" vector-effect="none" points="1337,107 1337,127 " />
</g>

<g fill="none" stroke="#000000" stroke-opacity="1" stroke-width="3" stroke-linecap="round" stroke-linejoin="bevel" transform="matrix(1,0,0,1,0,0)"
font-family="MS Shell Dlg 2" font-size="52.9167" font-weight="400" font-style="normal" 
>
<polyline fill="none" vector-effect="none" points="1601,122 1621,122 " />
</g>

<g fill="none" stroke="#000000" stroke-opacity="1" stroke-width="4" stroke-linecap="round" stroke-linejoin="bevel" transform="matrix(1,0,0,1,0,0)"
font-family="MS Shell Dlg 2" font-size="52.9167" font-weight="400" font-style="normal" 
>
<path vector-effect="none" fill-rule="evenodd" d="M1403,112 L1545,112 L1545,163 L1403,163 L1403,112"/>
</g>

<g fill="none" stroke="#000000" stroke-opacity="1" stroke-width="1" stroke-linecap="square" stroke-linejoin="bevel" transform="matrix(1,0,0,1,0,0)"
font-family="Arial" font-size="39.5732" font-weight="400" font-style="italic" 
>
<text fill="#000000" fill-opacity="1" stroke="none" xml:space="preserve" x="1444" y="214" font-family="Arial" font-size="39.5732" font-weight="400" font-style="italic" 
 >mA</text>
</g>

<g fill="none" stroke="#000000" stroke-opacity="1" stroke-width="4" stroke-linecap="round" stroke-linejoin="bevel" transform="matrix(1,0,0,1,0,0)"
font-family="MS Shell Dlg 2" font-size="52.9167" font-weight="400" font-style="normal" 
>
</g>

<g fill="none" stroke="#000000" stroke-opacity="1" stroke-width="1" stroke-linecap="square" stroke-linejoin="bevel" transform="matrix(1,0,0,1,0,0)"
font-family="Arial" font-size="41.656" font-weight="400" font-style="normal" 
>
<text fill="#000000" fill-opacity="1" stroke="none" xml:space="preserve" x="1421" y="153" font-family="Arial" font-size="41.656" font-weight="400" font-style="normal" 
 >+8.03</text>
</g>

<g fill="none" stroke="#000000" stroke-opacity="1" stroke-width="4" stroke-linecap="round" stroke-linejoin="bevel" transform="matrix(1,0,0,1,0,0)"
font-family="MS Shell Dlg 2" font-size="52.9167" font-weight="400" font-style="normal" 
>
</g>

<g fill="none" stroke="#000000" stroke-opacity="1" stroke-width="8" stroke-linecap="round" stroke-linejoin="bevel" transform="matrix(1,0,0,1,0,0)"
font-family="MS Shell Dlg 2" font-size="52.9167" font-weight="400" font-style="normal" 
>
<polyline fill="none" vector-effect="none" points="1321,152 1372,152 " />
</g>

<g fill="none" stroke="#000000" stroke-opacity="1" stroke-width="8" stroke-linecap="round" stroke-linejoin="bevel" transform="matrix(1,0,0,1,0,0)"
font-family="MS Shell Dlg 2" font-size="52.9167" font-weight="400" font-style="normal" 
>
<polyline fill="none" vector-effect="none" points="1626,152 1575,152 " />
</g>

<g fill="#000000" fill-opacity="1" stroke="#000000" stroke-opacity="1" stroke-width="8" stroke-linecap="round" stroke-linejoin="bevel" transform="matrix(1,0,0,1,0,0)"
font-family="MS Shell Dlg 2" font-size="52.9167" font-weight="400" font-style="normal" 
>
<path vector-effect="none" fill-rule="evenodd" d="M925,152 C925,157.523 920.523,162 915,162 C909.477,162 905,157.523 905,152 C905,146.477 909.477,142 915,142 C920.523,142 925,146.477 925,152 "/>
</g>
</g>
</svg>
